<?xml version="1.0" encoding="utf-8"?>
<!-- Generator: Adobe Illustrator 16.0.3, SVG Export Plug-In . SVG Version: 6.00 Build 0)  -->
<!DOCTYPE svg PUBLIC "-//W3C//DTD SVG 1.1//EN" "http://www.w3.org/Graphics/SVG/1.1/DTD/svg11.dtd">
<svg version="1.1" id="Layer_1" xmlns="http://www.w3.org/2000/svg" xmlns:xlink="http://www.w3.org/1999/xlink" x="0px" y="0px"
	 width="120px" height="32px" viewBox="0 0 120 32" enable-background="new 0 0 120 32" xml:space="preserve">
<g id="Layer_1_1_">
	<g>
		<path fill="#002441" d="M37,0h9.525c2.576,0,4.884,0.238,6.269,0.641c1.385,0.404,2.428,0.989,3.124,1.752
			c0.697,0.765,1.169,1.689,1.415,2.774c0.247,1.086,0.371,2.768,0.371,5.044v2.528c0,2.322-0.239,4.014-0.719,5.079
			c-0.478,1.062-1.358,1.879-2.64,2.449c-1.28,0.568-2.954,0.851-5.02,0.851h-2.866V32H37V0z M46.459,6.258v8.616
			c0.268,0.018,0.502,0.023,0.696,0.023c0.87,0,1.8-0.212,2.137-0.64c0.339-0.428,0.506-1.312,0.506-2.662V9.244
			c0-1.241-0.196-2.052-0.583-2.425C48.822,6.445,47.686,6.258,46.459,6.258z"/>
		<path fill="#002441" d="M96.087,11h-9.458v-0.967c0-1.795-0.101-2.915-0.307-3.359c-0.2-0.445-0.646-0.667-1.334-0.667
			c-0.779,0-1.273,0.272-1.482,0.81c-0.209,0.542-0.318,1.711-0.318,3.509v11.499c0,1.723,0.107,2.852,0.318,3.377
			c0.207,0.525,0.681,0.789,1.413,0.789c0.702,0,1.165-0.262,1.384-0.793c0.213-0.525,0.326-1.762,0.326-3.711L86.631,21h9.46v0.736
			c0,3.672-0.639,4.781-1.469,6.133c-0.668,1.084-1.952,1.961-3.026,2.582C89.729,31.531,87.702,32,85.035,32
			c-2.772,0-5.053-0.488-6.852-1.467c-1.798-0.98-2.986-2.334-3.571-4.07c-0.584-1.73-0.878-4.34-0.878-7.814v-5.385
			c0-2.557,0.093-4.478,0.27-5.754c0.183-1.281,0.715-2.51,1.607-3.694c0.896-1.186,2.126-2.117,3.707-2.796
			C80.896,0.339,82.713,0,84.766,0c2.787,0,5.086,0.526,6.896,1.576c1.814,1.053,3.004,2.361,3.571,3.931
			c0.57,1.569,0.717,2.73,0.717,3.236L96.087,11z"/>
		<path fill="#002441" d="M119.211,11h-8.782V8.428c0-1.227-0.115-1.583-0.34-1.918c-0.222-0.337-0.597-0.504-1.121-0.504
			c-0.568,0-1.001,0.226-1.291,0.68c-0.294,0.454-0.438,0.858-0.438,1.327c0,1.184-0.063,1.22,0.265,1.819
			c0.315,0.599,1.428,1.668,2.9,2.517c4.209,2.437,6.184,3.426,7.524,4.684c1.401,1.31,2.072,3.352,2.072,5.729
			c0,2.529-0.303,3.807-0.909,5.007c-0.611,1.195-1.777,2.201-3.516,3.014c-1.737,0.809-3.759,1.218-6.066,1.218
			c-2.528,0-4.688-0.467-6.479-1.404c-1.791-0.936-2.961-2.128-3.517-3.573c-0.55-1.447-0.83-2.875-0.83-5.542V21h8.783v1.853
			c0,1.329,0.124,2.187,0.371,2.565c0.247,0.384,0.684,0.573,1.313,0.573c0.626,0,1.097-0.242,1.405-0.723
			c0.304-0.482,0.458-1.202,0.458-2.148c0-0.972-0.528-1.802-1.117-2.32c-0.478-0.428-2.056-1.061-4.56-2.312
			c-2.342-1.174-3.645-2.058-4.372-2.784c-1.08-1.078-1.324-1.739-1.828-2.951c-0.503-1.214-0.751-2.618-0.751-4.503
			c0-1.817,0.407-3.476,1.293-4.624c0.938-1.223,1.633-1.855,3.222-2.565C104.488,0.353,106.407,0,108.65,0
			c2.458,0,4.548,0.388,6.28,1.163c1.725,0.775,2.875,1.75,3.438,2.927c0.558,1.176,0.841,1.305,0.841,4.125L119.211,11L119.211,11z
			"/>
		<rect fill="#A84D10" width="10" height="10"/>
		<rect y="11" fill="#A84D10" width="10" height="10"/>
		<rect y="22" fill="#A84D10" width="10" height="10"/>
		<rect x="11" fill="#A84D10" width="10" height="10"/>
		<rect x="11" y="11" fill="#002441" width="10" height="10"/>
		<rect x="11" y="22" fill="#73BBE8" width="10" height="10"/>
		<rect x="22" fill="#73BBE8" width="10" height="10"/>
		<rect x="22" y="11" fill="#73BBE8" width="10" height="10"/>
		<rect x="22" y="22" fill="#73BBE8" width="10" height="10"/>
		<rect x="61.207" fill="#002441" width="9.433" height="32"/>
	</g>
</g>
</svg>
